<svg width="37" height="40" viewBox="0 0 37 40" fill="none" xmlns="http://www.w3.org/2000/svg">
<path d="M8.38957 31.6194L27.4409 32.3814C29.3272 32.4765 30.8362 31.048 30.9304 29.1432L31.8736 5.42894C31.9679 3.14323 29.7987 1.42894 27.5352 2.0956L25.5547 2.5718C25.1774 2.66704 24.9887 2.95274 24.9887 3.3337C24.9887 3.8099 25.4603 4.19084 25.9318 4.0956L26.9693 3.8099C28.667 3.23847 30.3646 4.5718 30.3646 6.38131L29.5158 28.3814C29.4214 29.8098 28.1954 30.9528 26.7807 30.8575L9.14408 30.1908C7.72937 30.0955 6.59762 28.8575 6.69194 27.4289L6.78625 25.2385C6.78625 24.8575 6.50331 24.5718 6.12606 24.5718H5.93743C5.56017 24.5718 5.27723 24.8575 5.27723 25.2385L5.18292 28.1908C5.08861 30.0004 6.50331 31.5241 8.38957 31.6194Z" fill="#1B2459"/>
<path d="M4.61733 30.286C4.61733 30.286 4.71164 30.286 4.61733 30.286C5.0889 31.6193 6.31497 32.5717 7.72966 32.6668L28.6673 33.6193C31.7796 33.524 32.3455 30.5717 32.4398 29.3335V28.8574L33.3829 5.14305C33.4773 3.04781 31.9682 1.33352 29.9877 1.04781C29.9877 1.04781 35.5521 0.0954267 35.5521 4.38115L34.3261 34.0001C34.3261 34.1907 34.2317 34.3811 34.0432 34.4764C33.8545 34.6668 33.6659 34.6668 33.4773 34.6668L30.4592 34.5717C30.0819 34.5717 29.8933 34.9526 30.1763 35.2383L31.4967 36.8574H25.9322L23.1028 34.6668C22.4426 34.4764 21.971 34.286 21.4995 34.286L5.74909 33.524C5.74909 33.524 4.14576 33.524 4.61733 30.286Z" fill="#BF1B39"/>
<path d="M32.3453 37.8098L14.1428 39.048C13.4826 39.048 12.8224 38.9527 12.1623 38.667L9.89873 37.4289C9.42716 37.048 9.7101 36.1908 10.276 36.1908L32.3453 36.667C32.4397 36.667 32.5339 36.667 32.6283 36.7622C33.0055 37.048 32.9112 37.7147 32.3453 37.8098Z" fill="#BF1B39"/>
<path d="M17.9152 1.14282H21.9707C22.8196 1.14282 23.574 1.90472 23.574 2.76188V6.85711C23.574 7.71425 22.8196 8.47615 21.9707 8.47615H17.9152C17.0664 8.47615 16.312 7.71425 16.312 6.85711V2.66663C16.312 1.80949 17.0664 1.14282 17.9152 1.14282Z" fill="#1B2459"/>
<path d="M9.52136 17.4287V21.524C9.52136 22.3811 8.76686 23.143 7.91803 23.143H3.76825C2.91943 23.143 2.16492 22.3811 2.16492 21.524V17.4287C2.16492 16.5715 2.91943 15.8097 3.76825 15.8097H7.82372C8.76686 15.8097 9.52136 16.5715 9.52136 17.4287Z" fill="#1B2459"/>
<path d="M3.76825 1.04761H9.33273C10.1816 1.04761 10.9361 1.80951 10.9361 2.66665V7.23809C10.9361 7.61904 11.1247 8.09522 11.4076 8.38095L15.6517 12.6667C15.9346 12.9524 16.3119 13.1428 16.7835 13.1428H21.3105C22.1594 13.1428 22.9138 13.9048 22.9138 14.7618V20.381C22.9138 21.2381 22.1594 22 21.3105 22H15.746C14.8973 22 14.1427 21.2381 14.1427 20.381V15.8095C14.1427 15.4285 13.9541 14.9524 13.6712 14.6667L9.42705 10.3809C9.1441 10.0952 8.76685 9.90475 8.29528 9.90475H3.76825C2.91943 9.90475 2.16492 9.14285 2.16492 8.28571V2.66665C2.16492 1.80951 2.91943 1.04761 3.76825 1.04761Z" fill="#BF1B39"/>
</svg>
