<svg width="14" height="14" viewBox="0 0 14 14" fill="none" xmlns="http://www.w3.org/2000/svg">
<path fill-rule="evenodd" clip-rule="evenodd" d="M13.5573 2.79053L8.11983 8.22833C7.50138 8.84646 6.49881 8.84646 5.88036 8.22833L0.442881 2.79053C0.382394 2.91719 0.350098 3.05684 0.350098 3.19998V10.8C0.350098 11.052 0.450167 11.2937 0.628447 11.4716C0.806417 11.6499 1.04803 11.75 1.3001 11.75H12.7001C12.9522 11.75 13.1938 11.6499 13.3717 11.4716C13.55 11.2937 13.6501 11.052 13.6501 10.8V3.19998C13.6501 3.05684 13.6178 2.91719 13.5573 2.79053Z" fill="#1B2459"/>
<path fill-rule="evenodd" clip-rule="evenodd" d="M13.1095 2.34278C12.9829 2.2823 12.8432 2.25 12.7001 2.25C10.0505 2.25 3.94963 2.25 1.30007 2.25C1.15694 2.25 1.01729 2.2823 0.890625 2.34278L6.32842 7.78027C6.69924 8.1514 7.30091 8.1514 7.67173 7.78027L13.1095 2.34278Z" fill="#1B2459"/>
</svg>
