<svg width="32" height="32" viewBox="0 0 32 32" fill="none" xmlns="http://www.w3.org/2000/svg">
<g clip-path="url(#clip0_85_1100)">
<path d="M15.9906 17.9375C15.7289 17.9381 15.4697 17.8869 15.228 17.7867C14.9863 17.6865 14.7669 17.5393 14.5824 17.3538L12.1249 14.8988C11.8685 15.7651 11.906 16.692 12.2315 17.5348C12.5569 18.3777 13.1521 19.0891 13.9242 19.5583C14.6964 20.0275 15.602 20.228 16.5001 20.1286C17.3981 20.0292 18.238 19.6355 18.8888 19.0088C19.5397 18.3822 19.9649 17.5578 20.0981 16.6641C20.2314 15.7705 20.0653 14.8579 19.6256 14.0686C19.186 13.2793 18.4975 12.6576 17.6676 12.3005C16.8376 11.9434 15.9129 11.8709 15.0374 12.0944L17.4393 14.4963C18.2174 15.2744 18.2112 16.5481 17.4218 17.3419C17.2342 17.5304 17.0112 17.6801 16.7656 17.7823C16.5199 17.8845 16.2566 17.9373 15.9906 17.9375Z" fill="#1B2459" fill-opacity="0.4"/>
<path d="M7.67249 10.445C6.57042 12.0878 5.98292 14.0218 5.98499 16C5.98499 21.5231 10.4787 26.0163 16.0012 26.0163C21.5237 26.0163 26.0156 21.5231 26.0156 16C26.0156 10.4769 21.5225 5.98376 16 5.98376C14.0646 5.98399 12.1712 6.54872 10.5519 7.60876L12.8244 9.88189C13.8038 9.36703 14.8935 9.09745 16 9.09626C17.5172 9.0923 18.9936 9.58687 20.2023 10.5039C21.4109 11.4209 22.2849 12.7096 22.6896 14.1718C23.0944 15.634 23.0076 17.1886 22.4426 18.5967C21.8776 20.0047 20.8657 21.1882 19.5625 21.965C18.2593 22.7418 16.737 23.069 15.2297 22.8962C13.7224 22.7234 12.3136 22.0602 11.22 21.0087C10.1264 19.9571 9.40849 18.5754 9.17677 17.076C8.94506 15.5766 9.21233 14.0427 9.93749 12.71L7.67249 10.445Z" fill="#1B2459" fill-opacity="0.4"/>
<path d="M16 9.59374e-07C13.2119 -0.000967904 10.4726 0.731915 8.0575 2.125L10.2206 4.2875C10.2678 4.33514 10.3124 4.38521 10.3544 4.4375C12.1109 3.57348 14.0425 3.12444 16 3.125C23.0994 3.125 28.875 8.90063 28.875 16C28.875 23.0994 23.0988 28.875 16 28.875C8.90125 28.875 3.125 23.0988 3.125 16C3.12576 13.9974 3.59673 12.0229 4.5 10.2356C4.45938 10.2013 4.41313 10.1731 4.375 10.135L2.1875 7.9475C0.753888 10.3888 -0.00132721 13.1689 1.75092e-06 16C1.75092e-06 24.8225 7.1775 32 16 32C24.8225 32 32 24.8225 32 16C32 7.1775 24.8225 9.59374e-07 16 9.59374e-07Z" fill="#1B2459" fill-opacity="0.4"/>
<path d="M5.43748 9.07443C5.53228 9.15904 5.6548 9.20595 5.78185 9.20631C5.80767 9.20641 5.83342 9.2039 5.85873 9.19881L8.0731 8.72068L15.6431 16.2938C15.6886 16.3398 15.7427 16.3762 15.8023 16.4011C15.862 16.426 15.926 16.4388 15.9906 16.4388C16.0606 16.4383 16.1298 16.4238 16.1941 16.3964C16.2585 16.3689 16.3168 16.3289 16.3656 16.2788C16.4147 16.2328 16.4542 16.1775 16.4816 16.1161C16.509 16.0546 16.5238 15.9883 16.5252 15.921C16.5266 15.8538 16.5145 15.7869 16.4897 15.7244C16.4649 15.6618 16.4278 15.6049 16.3806 15.5569L8.80685 7.98381L9.28435 5.76943C9.29606 5.69434 9.29091 5.61759 9.26929 5.54473C9.24767 5.47188 9.21012 5.40474 9.15935 5.34818L6.47623 2.66443C6.44761 2.63106 6.40693 2.61039 6.3631 2.60693C6.30873 2.60693 6.26435 2.65068 6.24685 2.73193L5.76998 4.94631L4.7731 3.95006C4.72667 3.90357 4.67152 3.86669 4.61082 3.84153C4.55013 3.81637 4.48506 3.80342 4.41935 3.80342C4.35365 3.80342 4.28858 3.81637 4.22788 3.84153C4.16719 3.86669 4.11204 3.90357 4.0656 3.95006L4.05123 3.96506L4.03623 3.98006C3.94253 4.07382 3.8899 4.20094 3.8899 4.3335C3.8899 4.46605 3.94253 4.59318 4.03623 4.68693L5.03248 5.68693L2.8181 6.16131C2.6831 6.19006 2.6531 6.29256 2.7506 6.39068L5.43748 9.07443Z" fill="#1B2459" fill-opacity="0.4"/>
</g>
<defs>
<clipPath id="clip0_85_1100">
<rect width="32" height="32" fill="white"/>
</clipPath>
</defs>
</svg>
