<svg width="14" height="14" viewBox="0 0 14 14" fill="none" xmlns="http://www.w3.org/2000/svg">
<path d="M11.6174 8.72024C10.9439 8.72024 10.2826 8.61491 9.65601 8.40783C9.34896 8.3031 8.97149 8.39918 8.78409 8.59165L7.54725 9.52533C6.11287 8.75966 5.22932 7.87639 4.4741 6.45278L5.38031 5.24816C5.61575 5.01304 5.7002 4.66958 5.59902 4.34731C5.39105 3.71739 5.2854 3.05644 5.2854 2.38269C5.28543 1.89597 4.88946 1.5 4.40277 1.5H2.38266C1.89597 1.5 1.5 1.89597 1.5 2.38266C1.5 7.96144 6.03859 12.5 11.6174 12.5C12.1041 12.5 12.5 12.104 12.5 11.6173V9.60287C12.5 9.11621 12.104 8.72024 11.6174 8.72024Z" fill="#1B2459"/>
</svg>
