<svg width="156" height="32" viewBox="0 0 156 32" fill="none" xmlns="http://www.w3.org/2000/svg">
<path d="M6.11161 25.2955L21.3527 25.9051C22.8617 25.9812 24.0689 24.8384 24.1443 23.3145L24.8988 4.34311C24.9743 2.51455 23.2389 1.14311 21.4281 1.67645L19.8437 2.0574C19.5419 2.13359 19.3909 2.36216 19.3909 2.66692C19.3909 3.04788 19.7682 3.35264 20.1454 3.27645L20.9754 3.04788C22.3336 2.59074 23.6916 3.6574 23.6916 5.10502L23.0126 22.7051C22.9371 23.8478 21.9563 24.7622 20.8245 24.686L6.71521 24.1526C5.58345 24.0764 4.67805 23.086 4.7535 21.9431L4.82895 20.1907C4.82895 19.886 4.6026 19.6574 4.3008 19.6574H4.14989C3.84809 19.6574 3.62174 19.886 3.62174 20.1907L3.54629 22.5526C3.47084 24.0003 4.6026 25.2193 6.11161 25.2955Z" fill="#1B2459"/>
<path d="M3.09362 24.2288C3.09362 24.2288 3.16907 24.2288 3.09362 24.2288C3.47087 25.2954 4.45173 26.0573 5.58349 26.1334L22.3336 26.8954C24.8234 26.8192 25.2761 24.4573 25.3516 23.4668V23.0859L26.1061 4.11444C26.1816 2.43825 24.9743 1.06682 23.3899 0.838246C23.3899 0.838246 27.8415 0.0763412 27.8415 3.50492L26.8606 27.2001C26.8606 27.3526 26.7851 27.5049 26.6343 27.5811C26.4833 27.7334 26.3325 27.7334 26.1816 27.7334L23.7671 27.6573C23.4653 27.6573 23.3144 27.9621 23.5408 28.1907L24.5971 29.4859H20.1455L17.882 27.7334C17.3538 27.5811 16.9765 27.4288 16.5993 27.4288L3.99903 26.8192C3.99903 26.8192 2.71636 26.8192 3.09362 24.2288Z" fill="#BF1B39"/>
<path d="M25.2759 30.2479L10.7139 31.2384C10.1858 31.2384 9.65762 31.1622 9.12946 30.9336L7.31864 29.9431C6.94139 29.6384 7.16774 28.9526 7.62044 28.9526L25.2759 29.3336C25.3514 29.3336 25.4268 29.3336 25.5023 29.4098C25.8041 29.6384 25.7286 30.1717 25.2759 30.2479Z" fill="#BF1B39"/>
<path d="M13.732 0.914307H16.9764C17.6555 0.914307 18.2591 1.52383 18.2591 2.20955V5.48574C18.2591 6.17145 17.6555 6.78097 16.9764 6.78097H13.732C13.053 6.78097 12.4495 6.17145 12.4495 5.48574V2.13335C12.4495 1.44764 13.053 0.914307 13.732 0.914307Z" fill="#1B2459"/>
<path d="M7.01699 13.943V17.2192C7.01699 17.9049 6.41339 18.5144 5.73433 18.5144H2.4145C1.73544 18.5144 1.13184 17.9049 1.13184 17.2192V13.943C1.13184 13.2572 1.73544 12.6478 2.4145 12.6478H5.65888C6.41339 12.6478 7.01699 13.2572 7.01699 13.943Z" fill="#1B2459"/>
<path d="M2.4145 0.838013H6.86609C7.54515 0.838013 8.14875 1.44754 8.14875 2.13325V5.79039C8.14875 6.09516 8.29966 6.4761 8.52601 6.70468L11.9213 10.1333C12.1476 10.3618 12.4494 10.5142 12.8267 10.5142H16.4483C17.1274 10.5142 17.731 11.1237 17.731 11.8094V16.3047C17.731 16.9904 17.1274 17.5999 16.4483 17.5999H11.9967C11.3177 17.5999 10.7141 16.9904 10.7141 16.3047V12.6475C10.7141 12.3427 10.5632 11.9618 10.3369 11.7333L6.94154 8.30468C6.71519 8.0761 6.41338 7.92373 6.03613 7.92373H2.4145C1.73544 7.92373 1.13184 7.3142 1.13184 6.62849V2.13325C1.13184 1.44754 1.73544 0.838013 2.4145 0.838013Z" fill="#BF1B39"/>
<path d="M31.1611 24.4573V4.80017H35.3865V20.8002H45.195V24.4573H31.1611Z" fill="#BF1B39"/>
<path d="M51.0049 24.8382C50.4767 24.8382 50.024 24.762 49.4204 24.6858C48.8922 24.5334 48.3641 24.381 47.8359 24.0763C47.3077 23.7715 46.9305 23.3144 46.6287 22.781C46.3269 22.2477 46.176 21.4858 46.176 20.6477C46.176 19.581 46.4024 18.7429 46.8551 18.0573C47.3077 17.3715 47.9869 16.8382 48.8168 16.4573C49.6467 16.0763 50.7031 15.7715 51.8348 15.6192C53.0421 15.4667 54.3247 15.3906 55.7583 15.3906V14.2477C55.7583 13.7906 55.6828 13.4096 55.532 13.1048C55.381 12.8001 55.1547 12.4954 54.7774 12.3429C54.4001 12.1144 53.9475 12.0382 53.3438 12.0382C52.7403 12.0382 52.2121 12.1144 51.8348 12.2667C51.4576 12.4192 51.1558 12.6477 51.0049 12.8763C50.8539 13.1048 50.7786 13.4096 50.7786 13.6382V14.0192H46.9305C46.9305 13.9429 46.9305 13.8667 46.9305 13.7144C46.9305 13.6382 46.9305 13.4858 46.9305 13.4096C46.9305 12.4954 47.2324 11.7334 47.7605 11.1239C48.2887 10.5144 49.0432 9.98104 50.0241 9.67628C51.0049 9.29532 52.1366 9.14294 53.4193 9.14294C54.7774 9.14294 55.9846 9.29532 56.89 9.67628C57.7955 10.0573 58.55 10.5906 59.0782 11.2763C59.6062 11.962 59.8327 12.8763 59.8327 13.9429V20.8001C59.8327 21.181 59.908 21.4096 60.1344 21.562C60.3607 21.7144 60.5871 21.7906 60.8135 21.7906H61.7189V24.381C61.4925 24.4573 61.2662 24.6096 60.8135 24.6858C60.4362 24.762 59.908 24.8382 59.3799 24.8382C58.8517 24.8382 58.3236 24.762 57.9463 24.6096C57.4937 24.4573 57.1918 24.2287 56.89 23.9239C56.5882 23.6192 56.4373 23.2382 56.2865 22.8573H56.0601C55.7583 23.2382 55.381 23.6192 54.8528 23.9239C54.4001 24.2287 53.872 24.4573 53.2684 24.6096C52.5139 24.6858 51.8348 24.8382 51.0049 24.8382ZM52.363 21.7906C52.8911 21.7906 53.3438 21.7144 53.7966 21.562C54.2493 21.4096 54.5511 21.181 54.8528 20.8763C55.1547 20.5715 55.381 20.2667 55.532 19.8858C55.6828 19.5048 55.7583 19.0477 55.7583 18.5906V17.7525C54.702 17.7525 53.7211 17.8287 52.8911 17.981C52.0611 18.1334 51.3821 18.362 50.9294 18.7429C50.4767 19.1239 50.1749 19.581 50.1749 20.1906C50.1749 20.5715 50.2504 20.8001 50.4013 21.1048C50.5522 21.3334 50.8539 21.562 51.1558 21.7144C51.5331 21.7144 51.9103 21.7906 52.363 21.7906Z" fill="#BF1B39"/>
<path d="M71.301 24.8382C70.3201 24.8382 69.4148 24.6096 68.6603 24.2286C67.8303 23.8477 67.2267 23.2382 66.6986 22.4001H66.4722L66.1704 24.4572H62.926V3.7334H66.8494V11.0477H67.0003C67.3021 10.5905 67.6794 10.2096 68.1321 9.90484C68.5848 9.60007 69.0375 9.37149 69.6411 9.21911C70.1693 9.06673 70.7728 8.99054 71.452 8.99054C72.6591 8.99054 73.64 9.2953 74.5454 9.82862C75.4508 10.362 76.1299 11.2763 76.5826 12.4191C77.1107 13.562 77.3371 15.0857 77.3371 16.9144C77.3371 18.743 77.1107 20.1905 76.5826 21.4096C76.1299 22.5524 75.3754 23.4667 74.5454 24.0001C73.64 24.5334 72.5837 24.8382 71.301 24.8382ZM70.0938 21.562C70.9238 21.562 71.5273 21.4096 71.9801 21.1048C72.4328 20.8001 72.81 20.3429 72.961 19.6572C73.1873 19.0477 73.2627 18.2096 73.2627 17.2953V16.6096C73.2627 15.6191 73.1873 14.8572 72.961 14.2477C72.7346 13.6382 72.4328 13.1048 71.9801 12.8001C71.5273 12.4953 70.9238 12.3429 70.0938 12.3429C69.4903 12.3429 69.0375 12.4191 68.6603 12.6477C68.283 12.8763 67.9058 13.1048 67.6794 13.4857C67.4531 13.8667 67.2267 14.3238 67.0758 14.8572C66.9249 15.3905 66.8494 16.0001 66.8494 16.6857V17.2191C66.8494 18.1334 67.0003 18.8953 67.2267 19.5811C67.4531 20.2667 67.8303 20.7238 68.283 21.1048C68.7357 21.3334 69.3393 21.562 70.0938 21.562Z" fill="#BF1B39"/>
<path d="M85.2592 24.8383C84.2029 24.8383 83.2975 24.6859 82.4676 24.4573C81.6376 24.2288 81.034 23.924 80.5058 23.5431C79.9777 23.1621 79.6004 22.6288 79.2986 22.0954C78.9968 21.5621 78.9214 20.8764 78.9214 20.1907C78.9214 20.1144 78.9214 20.0383 78.9214 19.9621C78.9214 19.8859 78.9214 19.8098 78.9214 19.7335H81.8639C81.8639 19.8098 81.8639 19.8098 81.8639 19.8859C81.8639 19.9621 81.8639 19.9621 81.8639 20.0383C81.8639 20.6478 82.0148 21.105 82.3166 21.4859C82.6185 21.8669 83.0711 22.0954 83.5993 22.2478C84.1275 22.4002 84.7311 22.4764 85.4101 22.4764C86.0137 22.4764 86.4665 22.4002 86.9946 22.2478C87.4473 22.0954 87.9 21.8669 88.2018 21.6383C88.5037 21.3335 88.6545 20.9526 88.6545 20.5717C88.6545 19.9621 88.4282 19.5811 88.0509 19.2764C87.6737 18.9717 87.1455 18.7431 86.4665 18.5144C85.7873 18.3621 85.1838 18.1335 84.4293 17.905C83.8256 17.7526 83.1466 17.524 82.543 17.3717C81.9394 17.1431 81.3358 16.9144 80.8831 16.6098C80.3549 16.305 79.9777 15.8478 79.6759 15.3907C79.3741 14.8573 79.2232 14.2478 79.2232 13.5621C79.2232 12.8764 79.3741 12.2669 79.6759 11.7335C79.9777 11.2002 80.4304 10.7431 80.9586 10.3621C81.4867 9.98111 82.1658 9.75255 82.9203 9.524C83.6748 9.29544 84.5047 9.21924 85.4101 9.21924C86.3155 9.21924 87.1455 9.29544 87.9 9.524C88.6545 9.75255 89.2582 9.98111 89.7109 10.3621C90.239 10.7431 90.6162 11.124 90.8426 11.6573C91.1444 12.1907 91.2199 12.724 91.2199 13.2573C91.2199 13.4098 91.2199 13.4859 91.2199 13.6383C91.2199 13.7907 91.2199 13.8669 91.2199 13.8669H88.3527V13.6383C88.3527 13.2573 88.2772 12.8764 88.0509 12.5717C87.8245 12.2669 87.5227 12.0383 87.07 11.8098C86.6173 11.5811 86.0137 11.505 85.2592 11.505C84.7311 11.505 84.3538 11.5811 83.9766 11.6573C83.5993 11.7335 83.2975 11.8859 83.0711 12.0383C82.8448 12.1907 82.6185 12.3431 82.543 12.5717C82.3921 12.8002 82.3921 13.0288 82.3921 13.2573C82.3921 13.7144 82.543 14.0192 82.8448 14.2478C83.1466 14.4764 83.5993 14.705 84.052 14.8573C84.5802 15.0098 85.1083 15.1621 85.712 15.3907C86.391 15.6192 87.07 15.7717 87.7492 16.0002C88.4282 16.2288 89.1072 16.4573 89.7109 16.7621C90.3144 17.0669 90.7672 17.524 91.1444 18.0573C91.5217 18.5907 91.6726 19.2764 91.6726 20.1907C91.6726 21.0288 91.5217 21.7144 91.2199 22.324C90.918 22.9335 90.4654 23.3907 89.8617 23.7717C89.2582 24.1526 88.579 24.4573 87.8245 24.6098C86.9946 24.6859 86.1647 24.8383 85.2592 24.8383Z" fill="#1B2459"/>
<path d="M103.745 29.4096V22.6287H103.518C103.216 23.162 102.839 23.5429 102.387 23.8477C101.934 24.1525 101.405 24.381 100.878 24.5334C100.274 24.6858 99.6705 24.762 99.0672 24.762C97.9355 24.762 96.9541 24.4572 96.0488 23.9239C95.1434 23.3906 94.4643 22.4762 94.0116 21.3334C93.4834 20.1906 93.2571 18.6668 93.2571 16.9143C93.2571 15.0858 93.4834 13.562 94.0116 12.4191C94.4643 11.2762 95.1434 10.362 96.0488 9.82867C96.9541 9.29531 98.0103 8.99054 99.2178 8.99054C100.199 8.99054 101.104 9.21912 101.858 9.60007C102.689 9.98101 103.292 10.5906 103.82 11.4287H104.047L104.348 9.3715H106.763V29.4096H103.745ZM100.047 22.2477C100.652 22.2477 101.179 22.1715 101.632 21.9429C102.084 21.7143 102.462 21.4858 102.763 21.0287C103.066 20.6477 103.368 20.1143 103.518 19.4287C103.669 18.7429 103.745 17.981 103.745 17.0668V16.6858C103.745 15.6191 103.594 14.7048 103.368 13.8668C103.066 13.1048 102.689 12.4953 102.16 12.1143C101.632 11.7334 100.878 11.5048 100.047 11.5048C99.2178 11.5048 98.463 11.6572 97.9355 12.0381C97.407 12.4191 97.0296 12.9525 96.7278 13.6381C96.426 14.4001 96.3506 15.3906 96.3506 16.5334V17.0668C96.3506 18.2096 96.5015 19.1239 96.7278 19.8858C96.9541 20.6477 97.407 21.181 97.9355 21.562C98.463 22.0191 99.2178 22.2477 100.047 22.2477Z" fill="#1B2459"/>
<path d="M114.685 24.8384C113.252 24.8384 112.045 24.4574 111.214 23.6955C110.309 22.9336 109.856 21.5621 109.856 19.7336V9.37164H112.799V19.2002C112.799 19.8097 112.874 20.2669 113.026 20.6478C113.176 21.0288 113.403 21.3336 113.629 21.5621C113.931 21.7907 114.232 21.943 114.534 22.0193C114.911 22.0955 115.289 22.1717 115.742 22.1717C116.421 22.1717 117.024 22.0193 117.627 21.6384C118.156 21.3336 118.609 20.8002 118.985 20.2669C119.363 19.6574 119.514 18.9717 119.514 18.2097V9.37164H122.456V24.4574H119.967L119.74 22.324H119.514C119.137 22.8574 118.759 23.3145 118.232 23.6955C117.703 24.0764 117.175 24.305 116.571 24.5336C116.043 24.6859 115.364 24.8384 114.685 24.8384Z" fill="#1B2459"/>
<path d="M125.625 6.78101V3.7334H128.568V6.78101H125.625ZM125.625 24.4572V9.37149H128.568V24.4572H125.625Z" fill="#1B2459"/>
<path d="M131.812 24.4572V9.3715H134.227L134.454 11.8096H134.604C134.755 11.3525 134.981 10.8953 135.283 10.4381C135.585 9.98101 135.887 9.67626 136.34 9.3715C136.793 9.06674 137.32 8.99054 137.999 8.99054C138.301 8.99054 138.604 8.99054 138.83 9.06674C139.056 9.14293 139.283 9.14293 139.357 9.21912V12.0381H138.377C137.773 12.0381 137.245 12.1143 136.793 12.3429C136.34 12.5715 135.962 12.8001 135.661 13.181C135.359 13.562 135.133 14.0191 134.981 14.5525C134.83 15.0858 134.755 15.6953 134.755 16.381V24.4572H131.812Z" fill="#1B2459"/>
<path d="M146.978 24.8382C145.47 24.8382 144.186 24.5334 143.13 24C142.074 23.4667 141.32 22.5524 140.791 21.4096C140.263 20.2667 139.962 18.7429 139.962 16.9905C139.962 15.1619 140.263 13.7144 140.791 12.4953C141.32 11.3524 142.074 10.5144 143.13 9.90482C144.186 9.37147 145.47 9.06671 147.054 9.06671C148.487 9.06671 149.694 9.37147 150.6 9.90482C151.581 10.4382 152.26 11.2763 152.788 12.4191C153.316 13.5619 153.542 14.9334 153.542 16.6096V17.7524H143.055C143.055 18.8191 143.281 19.7334 143.507 20.4191C143.809 21.1048 144.186 21.6382 144.791 22.0191C145.394 22.3238 146.073 22.5524 146.978 22.5524C147.507 22.5524 148.034 22.4763 148.487 22.3238C148.94 22.1715 149.317 21.9429 149.619 21.7144C149.921 21.4096 150.147 21.1048 150.298 20.7238C150.449 20.3429 150.524 19.8857 150.524 19.3524H153.392C153.392 20.2667 153.241 21.0286 152.939 21.7144C152.637 22.4 152.184 23.0096 151.581 23.4667C150.977 23.9238 150.298 24.3048 149.544 24.5334C148.865 24.6857 147.959 24.8382 146.978 24.8382ZM143.13 15.4667H150.449C150.449 14.7048 150.373 14.0953 150.223 13.5619C150.071 13.0286 149.845 12.6477 149.544 12.3429C149.242 12.0382 148.865 11.8096 148.487 11.6572C148.034 11.5048 147.582 11.4286 147.054 11.4286C146.223 11.4286 145.544 11.581 145.017 11.8857C144.489 12.1905 144.036 12.6477 143.734 13.2572C143.357 13.7905 143.205 14.5524 143.13 15.4667Z" fill="#1B2459"/>
</svg>
